<mxfile host="app.diagrams.net" agent="Mozilla/5.0 (X11; Linux x86_64) AppleWebKit/537.36 (KHTML, like Gecko) Chrome/135.0.0.0 Safari/537.36" version="26.2.13">
  <diagram name="Page-1" id="8BL1IheEsURWLlct5k_n">
    <mxGraphModel dx="786" dy="763" grid="0" gridSize="10" guides="1" tooltips="1" connect="1" arrows="1" fold="1" page="1" pageScale="1" pageWidth="850" pageHeight="1100" math="0" shadow="0">
      <root>
        <mxCell id="0" />
        <mxCell id="1" parent="0" />
        <mxCell id="2fABCEItRAp_LSAv0_ME-1" value="" style="shape=flexArrow;endArrow=classic;startArrow=classic;html=1;rounded=0;" edge="1" parent="1">
          <mxGeometry width="100" height="100" relative="1" as="geometry">
            <mxPoint x="79" y="680" as="sourcePoint" />
            <mxPoint x="79" y="80" as="targetPoint" />
          </mxGeometry>
        </mxCell>
        <mxCell id="2fABCEItRAp_LSAv0_ME-3" value="&lt;font style=&quot;font-size: 25px;&quot;&gt;Enough&lt;/font&gt;" style="rounded=0;whiteSpace=wrap;html=1;fillColor=#d5e8d4;strokeColor=#82b366;" vertex="1" parent="1">
          <mxGeometry x="79" y="380" width="640" height="60" as="geometry" />
        </mxCell>
        <mxCell id="2fABCEItRAp_LSAv0_ME-4" value="&lt;font style=&quot;font-size: 25px;&quot;&gt;Abundance&lt;/font&gt;" style="rounded=0;whiteSpace=wrap;html=1;fillColor=#60a917;fontColor=#ffffff;strokeColor=#2D7600;" vertex="1" parent="1">
          <mxGeometry x="79" y="320" width="640" height="60" as="geometry" />
        </mxCell>
        <mxCell id="2fABCEItRAp_LSAv0_ME-5" value="&lt;font style=&quot;font-size: 25px;&quot;&gt;Greed&lt;/font&gt;" style="rounded=0;whiteSpace=wrap;html=1;fillColor=#f8cecc;strokeColor=#b85450;" vertex="1" parent="1">
          <mxGeometry x="79" y="120" width="640" height="200" as="geometry" />
        </mxCell>
        <mxCell id="2fABCEItRAp_LSAv0_ME-6" value="&lt;font style=&quot;font-size: 25px;&quot;&gt;Scarcity&lt;/font&gt;" style="rounded=0;whiteSpace=wrap;html=1;fillColor=#f8cecc;strokeColor=#b85450;" vertex="1" parent="1">
          <mxGeometry x="79" y="440" width="640" height="200" as="geometry" />
        </mxCell>
        <mxCell id="2fABCEItRAp_LSAv0_ME-7" value="" style="endArrow=none;html=1;rounded=0;strokeWidth=3;strokeColor=default;dashed=1;" edge="1" parent="1">
          <mxGeometry width="50" height="50" relative="1" as="geometry">
            <mxPoint x="79" y="480" as="sourcePoint" />
            <mxPoint x="799" y="480" as="targetPoint" />
          </mxGeometry>
        </mxCell>
        <mxCell id="2fABCEItRAp_LSAv0_ME-9" value="0" style="text;html=1;align=center;verticalAlign=middle;resizable=0;points=[];autosize=1;strokeColor=none;fillColor=none;fontSize=25;" vertex="1" parent="1">
          <mxGeometry x="39" y="455" width="40" height="40" as="geometry" />
        </mxCell>
      </root>
    </mxGraphModel>
  </diagram>
</mxfile>
